<svg xmlns="http://www.w3.org/2000/svg" id="Ebene_1" viewBox="0 0 193.67 50.1"><g><g><path d="M23.14,16.41c1.13-.74,1.99-1.72,2.61-2.94.61-1.22.92-2.64.92-4.25,0-1.89-.38-3.52-1.15-4.88-.76-1.36-1.9-2.43-3.42-3.19-1.51-.76-3.37-1.15-5.57-1.15H.93v30.4h6.51v-11.43h4.92l7.63,11.43h7.84l-8.6-12.54c1.51-.26,2.81-.74,3.91-1.46h0ZM15.49,13.93H7.44V5.09h8.05c1.36,0,2.42.33,3.17.98.75.65,1.13,1.58,1.13,2.77v1.38c0,1.11-.37,2.01-1.13,2.69-.75.68-1.81,1.02-3.17,1.02h0Z" fill="#fff"></path><path d="M46.41,9.34c-1.63-1.11-3.7-1.67-6.23-1.67-2.2,0-4.11.47-5.73,1.42-1.63.95-2.88,2.29-3.75,4.05-.88,1.75-1.31,3.84-1.31,6.26,0,2.28.44,4.27,1.31,5.98.88,1.71,2.13,3.04,3.78,3.98,1.64.95,3.61,1.42,5.92,1.42,1.81,0,3.43-.29,4.86-.88,1.43-.58,2.61-1.41,3.52-2.48.92-1.07,1.47-2.34,1.67-3.82h-5.75c-.28.78-.77,1.4-1.48,1.88-.71.47-1.65.71-2.82.71-1,0-1.88-.21-2.63-.63-.75-.42-1.33-1.04-1.73-1.88-.4-.83-.61-1.88-.61-3.13h15.22c.22-2.5-.02-4.72-.73-6.65-.71-1.93-1.88-3.45-3.5-4.57h0ZM37.67,12.82c.69-.4,1.51-.6,2.46-.6s1.76.19,2.44.56c.68.38,1.21.95,1.58,1.71.31.63.46,1.39.48,2.27h-9.18c.08-.81.27-1.54.58-2.17.39-.78.93-1.37,1.63-1.77Z" fill="#fff"></path><path d="M62.82,1.38l-6.13.58v6.09h-4v4.92h4v11.76c0,1.97.46,3.41,1.38,4.32.92.9,2.34,1.36,4.25,1.36h5v-5h-2.59c-.61,0-1.08-.13-1.42-.38s-.5-.72-.5-1.42v-10.63h4.5v-4.92h-4.5V1.38Z" fill="#fff"></path><path d="M90.45,25.65c-.21-.25-.31-.65-.31-1.21v-8.67c0-1.28-.19-2.42-.58-3.44-.39-1.01-.97-1.87-1.75-2.56-.78-.69-1.75-1.22-2.92-1.58-1.17-.36-2.52-.54-4.05-.54-2.03,0-3.79.31-5.28.94s-2.65,1.51-3.48,2.65c-.83,1.14-1.26,2.47-1.29,4h6.01c0-.58.15-1.08.46-1.5.31-.42.74-.74,1.29-.98.56-.24,1.21-.35,1.96-.35.69,0,1.31.1,1.83.29.53.19.94.52,1.23.98s.44,1.08.44,1.86v1.79h-4.46c-1.42,0-2.71.16-3.88.48-1.17.32-2.16.78-2.96,1.38-.81.6-1.43,1.34-1.88,2.23s-.67,1.92-.67,3.09c0,1.86.65,3.37,1.96,4.52,1.31,1.15,3.04,1.73,5.21,1.73,1.53,0,2.95-.31,4.25-.94s2.22-1.44,2.75-2.44h.21c.31.97.83,1.72,1.58,2.25.75.53,1.78.79,3.09.79h3.09v-4.38h-.96c-.39,0-.69-.13-.9-.38h0ZM82.57,25.75c-.79.54-1.76.81-2.9.81-.97,0-1.76-.24-2.36-.71-.6-.47-.9-1.11-.9-1.92,0-.64.16-1.17.48-1.61.32-.43.8-.76,1.44-1,.64-.24,1.44-.35,2.42-.35h3.25v2.42c-.17,1.03-.65,1.81-1.44,2.36h0Z" fill="#fff"></path><rect x="95.85" y="0" width="6.13" height="5.21" fill="#fff"></rect><rect x="95.85" y="8.05" width="6.13" height="22.35" fill="#fff"></rect><path d="M114.74,25.56c-.47,0-.85-.1-1.13-.31-.28-.21-.42-.63-.42-1.27V0h-6.13v25.23c0,1.14.18,2.09.54,2.86.36.77.93,1.34,1.71,1.73.78.39,1.79.58,3.04.58h3.8v-4.84h-1.42,0Z" fill="#fff"></path></g><g><rect x="187" y="0" width="6.51" height="30.4" fill="#fff"></rect><path d="M163.6,0l-10.09,30.4h6.76l1.94-6.26h12.06l1.94,6.26h6.76L172.85,0h-9.26ZM163.74,19.14l3.19-10.3,1.17-3.92h.29l1.13,3.92,3.19,10.3h-8.96Z" fill="#fff"></path></g></g><polygon points="147.48 9.8 146.39 8.72 145.31 7.63 135.92 17.02 126.54 7.63 125.46 8.72 124.37 9.8 133.76 19.18 124.37 28.57 125.46 29.65 126.54 30.74 135.92 21.35 145.31 30.74 146.39 29.65 147.48 28.57 138.09 19.18 147.48 9.8" fill="#00a2e2"></polygon><g><path d="M3.73,37.64l-3.73,10.13h1.26l.89-2.49h4.84l.89,2.49h1.24l-3.71-10.13s-1.68,0-1.68,0ZM2.49,44.32l1.6-4.46.43-1.28h.08l.45,1.28,1.59,4.46H2.49Z" fill="#fff"></path><path d="M16.31,39.08c.56-.33,1.22-.5,2-.5.6,0,1.14.1,1.61.31.46.21.85.49,1.15.85s.5.78.59,1.25h1.22c-.11-.7-.37-1.32-.78-1.83-.41-.52-.94-.92-1.58-1.2-.65-.28-1.38-.42-2.2-.42-.75,0-1.44.12-2.05.36-.61.24-1.13.59-1.57,1.04-.44.45-.77.99-1.01,1.63-.24.64-.36,1.36-.36,2.15s.12,1.5.35,2.14c.23.64.57,1.19,1.01,1.64.44.45.97.8,1.58,1.04s1.29.36,2.05.36c.83,0,1.57-.14,2.22-.43.65-.29,1.18-.69,1.59-1.22s.66-1.15.75-1.86h-1.22c-.08.5-.28.94-.58,1.31-.3.37-.69.66-1.16.86-.47.2-1.01.31-1.61.31s-1.1-.1-1.56-.29c-.46-.19-.85-.46-1.17-.82-.32-.36-.57-.79-.75-1.31s-.27-1.09-.27-1.73c0-.86.15-1.6.45-2.22.3-.62.73-1.09,1.29-1.42h0Z" fill="#fff"></path><path d="M30.15,41.38c-.31-.33-.68-.59-1.11-.76s-.91-.26-1.45-.26c-.72,0-1.34.16-1.88.48s-.95.76-1.24,1.33-.43,1.22-.43,1.97c0,.57.09,1.08.26,1.54.17.46.41.86.73,1.19.31.33.68.59,1.12.76.43.18.91.26,1.45.26.72,0,1.34-.16,1.87-.48.53-.32.94-.76,1.22-1.33.28-.57.43-1.22.43-1.96,0-.57-.08-1.09-.25-1.56-.17-.46-.4-.86-.71-1.2ZM29.66,45.64c-.2.42-.48.74-.83.96-.35.22-.77.33-1.24.33-.36,0-.69-.06-.99-.19-.3-.12-.55-.31-.76-.55-.21-.24-.37-.54-.47-.88-.11-.35-.16-.73-.16-1.16,0-.6.1-1.11.3-1.53.2-.42.48-.74.84-.97.36-.23.77-.34,1.25-.34.37,0,.7.07.99.19.29.13.54.32.74.56s.36.54.48.89c.11.35.17.74.17,1.17,0,.58-.1,1.09-.3,1.51h0Z" fill="#fff"></path><path d="M42.98,40.68c-.39-.2-.83-.31-1.32-.31-.6,0-1.13.15-1.61.44-.48.29-.83.73-1.04,1.31h-.11c-.19-.63-.49-1.08-.92-1.35s-.92-.4-1.48-.4-1.05.14-1.51.41c-.46.27-.79.68-1.01,1.22h-.08l-.04-1.51h-1.08v7.3h1.12v-3.95c0-.48.09-.91.28-1.29.19-.38.44-.67.77-.9.33-.22.72-.33,1.17-.33.42,0,.76.09,1.03.26s.46.43.59.79c.13.35.2.8.2,1.35v4.07h1.14v-3.95c0-.48.09-.91.27-1.29.18-.38.44-.67.77-.9s.71-.33,1.15-.33.77.09,1.04.26.47.43.6.79c.14.35.2.8.2,1.35v4.07h1.12v-4.3c0-.75-.11-1.36-.33-1.81s-.53-.79-.91-.99h0Z" fill="#fff"></path><path d="M52.17,41.37c-.27-.32-.59-.57-.96-.74-.37-.17-.78-.26-1.23-.26-.63,0-1.18.15-1.63.44-.46.3-.77.69-.94,1.18h-.07l-.06-1.51h-1.06v9.62h1.13v-3.82h.06c.12.32.3.61.54.85.24.25.53.44.88.57s.73.2,1.15.2c.61,0,1.14-.15,1.59-.44.46-.3.81-.73,1.06-1.29.25-.57.38-1.24.38-2.03,0-.58-.07-1.11-.22-1.58-.14-.47-.35-.86-.62-1.19h0ZM51.58,45.67c-.19.43-.45.75-.78.97-.34.22-.74.33-1.22.33s-.87-.11-1.2-.33c-.33-.22-.59-.51-.77-.88-.18-.36-.27-.76-.27-1.18v-.89c0-.42.09-.81.27-1.17.18-.37.43-.66.77-.88.34-.22.74-.33,1.23-.33s.87.11,1.2.33c.33.22.59.54.77.97.18.42.27.93.27,1.52s-.09,1.1-.28,1.53Z" fill="#fff"></path><path d="M60.42,46.72c-.09-.12-.14-.32-.14-.6v-3.29c0-.41-.06-.76-.18-1.07-.12-.31-.3-.56-.52-.77-.23-.21-.51-.37-.85-.48-.34-.11-.73-.17-1.18-.17-.58,0-1.09.09-1.53.28-.44.19-.79.45-1.04.78-.25.33-.38.72-.39,1.15h1.12c.02-.26.1-.48.25-.67.15-.19.35-.34.61-.45.26-.11.57-.17.92-.17s.67.05.91.16c.25.11.43.27.56.5.13.23.19.52.19.87v.78h-1.77c-.47,0-.88.05-1.26.15-.37.1-.69.25-.95.44-.26.2-.46.44-.6.72s-.21.6-.21.95c0,.62.22,1.12.66,1.49.44.38,1.02.56,1.74.56.55,0,1.04-.11,1.49-.33.44-.22.77-.53.97-.92h.06c.05.37.17.65.38.85.2.19.5.29.89.29h.7v-.88h-.39c-.2,0-.34-.06-.43-.18h0ZM58.37,46.73c-.37.23-.8.34-1.31.34-.48,0-.85-.12-1.14-.35s-.43-.55-.43-.95c0-.31.08-.57.24-.79.16-.22.39-.38.69-.49.3-.11.67-.17,1.11-.17h1.61v1.46c-.15.41-.41.73-.77.95h0Z" fill="#fff"></path><path d="M68.26,41.08c-.24-.25-.52-.43-.84-.54s-.67-.17-1.05-.17c-.55,0-1.06.14-1.52.41-.47.27-.81.68-1.03,1.22h-.08l-.04-1.51h-1.08v7.3h1.12v-3.95c0-.48.09-.91.28-1.29.19-.38.45-.67.8-.9.34-.22.74-.33,1.2-.33.43,0,.78.09,1.05.26.27.17.48.43.61.79.13.35.2.8.2,1.35v4.07h1.13v-4.3c0-.57-.07-1.04-.2-1.44-.13-.39-.31-.72-.55-.97h0Z" fill="#fff"></path><path d="M74.1,44.46l-.6,1.74h-.07l-.66-1.74-1.52-3.98h-1.24l2.9,6.81-.39.99c-.07.2-.17.37-.29.5-.12.13-.25.23-.41.29-.16.06-.35.1-.57.1h-.74v.93h.91c.37,0,.69-.05.96-.15.27-.1.5-.27.7-.49.2-.23.36-.53.5-.9l3.17-8.08h-1.22l-1.44,3.98h0Z" fill="#fff"></path><path d="M86.95,41.38c-.31-.33-.68-.59-1.11-.76s-.91-.26-1.45-.26c-.72,0-1.34.16-1.88.48s-.95.76-1.24,1.33-.43,1.22-.43,1.97c0,.57.09,1.08.26,1.54.17.46.41.86.73,1.19.31.33.68.59,1.12.76.43.18.91.26,1.45.26.72,0,1.34-.16,1.87-.48.53-.32.94-.76,1.22-1.33.28-.57.43-1.22.43-1.96,0-.57-.08-1.09-.25-1.56-.17-.46-.4-.86-.71-1.2h0ZM86.46,45.64c-.2.42-.48.74-.83.96-.35.22-.77.33-1.24.33-.36,0-.69-.06-.99-.19-.3-.12-.55-.31-.76-.55-.21-.24-.37-.54-.47-.88-.11-.35-.16-.73-.16-1.16,0-.6.1-1.11.3-1.53.2-.42.48-.74.84-.97.36-.23.77-.34,1.25-.34.37,0,.7.07.99.19.29.13.54.32.74.56s.36.54.48.89c.11.35.17.74.17,1.17,0,.58-.1,1.09-.3,1.51h0Z" fill="#fff"></path><path d="M90.33,38.05c-.31.27-.46.68-.46,1.22v1.21h-1.23v.9h1.23v6.39h1.12v-6.39h1.51v-.9h-1.51v-1.07c0-.27.06-.48.18-.63s.35-.23.68-.23h.77v-.9h-1.01c-.55,0-.98.13-1.28.4h0Z" fill="#fff"></path><polygon points="103.02 43.64 102.17 46.26 102.07 46.26 101.23 43.64 98.98 37.64 97.06 37.64 97.06 47.78 98.23 47.78 98.23 42.51 98.17 38.73 98.27 38.73 99.53 42.26 101.58 47.78 102.67 47.78 104.75 42.2 105.96 38.73 106.08 38.73 106.03 42.5 106.03 47.78 107.19 47.78 107.19 37.64 105.27 37.64 103.02 43.64" fill="#fff"></polygon><path d="M115.01,46.72c-.09-.12-.14-.32-.14-.6v-3.29c0-.41-.06-.76-.18-1.07-.12-.31-.3-.56-.52-.77-.23-.21-.51-.37-.85-.48-.34-.11-.73-.17-1.18-.17-.58,0-1.09.09-1.53.28-.44.19-.79.45-1.04.78-.25.33-.38.72-.39,1.15h1.12c.02-.26.1-.48.25-.67.15-.19.35-.34.61-.45.26-.11.57-.17.92-.17s.67.05.91.16c.25.11.43.27.56.5.13.23.19.52.19.87v.78h-1.77c-.47,0-.88.05-1.26.15-.37.1-.69.25-.95.44-.26.2-.46.44-.6.72s-.21.6-.21.95c0,.62.22,1.12.66,1.49.44.38,1.02.56,1.74.56.55,0,1.04-.11,1.49-.33.44-.22.77-.53.97-.92h.06c.05.37.17.65.38.85.2.19.5.29.89.29h.7v-.88h-.39c-.2,0-.34-.06-.43-.18h0ZM112.97,46.73c-.37.23-.8.34-1.31.34-.48,0-.85-.12-1.14-.35s-.43-.55-.43-.95c0-.31.08-.57.24-.79.16-.22.39-.38.69-.49.3-.11.67-.17,1.11-.17h1.61v1.46c-.15.41-.41.73-.77.95h0Z" fill="#fff"></path><path d="M120.51,40.38c-.49,0-.94.12-1.34.38-.4.25-.68.61-.84,1.07h-.06l-.07-1.35h-1.01v7.3h1.12v-4.35c.04-.42.15-.77.33-1.06s.43-.52.75-.67c.32-.16.69-.24,1.12-.24.08,0,.16,0,.24,0,.07,0,.14.01.21.02v-1.07c-.07,0-.13-.02-.21-.02s-.15,0-.24,0h0Z" fill="#fff"></path><polygon points="128.56 40.48 127.13 40.48 124.12 43.51 123.46 44.21 123.46 37.64 122.31 37.64 122.31 47.78 123.46 47.78 123.46 45.47 124.91 44.07 125.36 44.79 127.36 47.78 128.68 47.78 125.69 43.3 128.56 40.48" fill="#fff"></polygon><path d="M135.57,46.72c-.09-.12-.14-.32-.14-.6v-3.29c0-.41-.06-.76-.18-1.07-.12-.31-.3-.56-.52-.77-.23-.21-.51-.37-.85-.48-.34-.11-.73-.17-1.18-.17-.58,0-1.09.09-1.53.28-.44.19-.79.45-1.04.78-.25.33-.38.72-.39,1.15h1.12c.02-.26.1-.48.25-.67.15-.19.35-.34.61-.45.26-.11.57-.17.92-.17s.67.05.91.16c.25.11.43.27.56.5.13.23.19.52.19.87v.78h-1.77c-.47,0-.88.05-1.26.15-.37.1-.69.25-.95.44-.26.2-.46.44-.6.72s-.21.6-.21.95c0,.62.22,1.12.66,1.49.44.38,1.02.56,1.74.56.55,0,1.04-.11,1.49-.33.44-.22.77-.53.97-.92h.06c.05.37.17.65.38.85.2.19.5.29.89.29h.7v-.88h-.39c-.2,0-.34-.06-.43-.18h0ZM133.52,46.73c-.37.23-.8.34-1.31.34-.48,0-.85-.12-1.14-.35s-.43-.55-.43-.95c0-.31.08-.57.24-.79.16-.22.39-.38.69-.49.3-.11.67-.17,1.11-.17h1.61v1.46c-.15.41-.41.73-.77.95h0Z" fill="#fff"></path><path d="M143.41,41.08c-.24-.25-.52-.43-.84-.54s-.67-.17-1.05-.17c-.55,0-1.06.14-1.52.41-.47.27-.81.68-1.03,1.22h-.08l-.04-1.51h-1.08v7.3h1.12v-3.95c0-.48.09-.91.28-1.29.19-.38.45-.67.8-.9.34-.22.74-.33,1.2-.33.43,0,.78.09,1.05.26.27.17.48.43.61.79.13.35.2.8.2,1.35v4.07h1.13v-4.3c0-.57-.07-1.04-.2-1.44-.13-.39-.31-.72-.55-.97h0Z" fill="#fff"></path><path d="M147.99,46.63c-.13-.12-.2-.33-.2-.6v-4.62h1.69v-.93h-1.7v-2.34l-1.12.15v2.18h-1.42v.93h1.42v4.8c0,.56.13.96.4,1.2s.65.37,1.17.37h1.28v-.96h-.95c-.25,0-.44-.06-.57-.19h0Z" fill="#fff"></path><path d="M158.94,43.5h3.45c-.02.67-.17,1.25-.45,1.74-.3.53-.72.94-1.26,1.22-.54.28-1.17.42-1.9.42-.58,0-1.09-.1-1.55-.29s-.85-.47-1.18-.83c-.33-.36-.58-.8-.76-1.31-.18-.51-.27-1.1-.27-1.74,0-.86.16-1.6.47-2.21.31-.61.75-1.08,1.32-1.41.57-.33,1.23-.49,2-.49.57,0,1.09.09,1.56.28s.87.45,1.19.81c.32.35.53.79.62,1.31h1.21c-.09-.69-.34-1.3-.75-1.81s-.94-.92-1.6-1.2c-.66-.29-1.4-.43-2.23-.43-.74,0-1.42.12-2.04.36-.61.24-1.14.59-1.58,1.04-.44.45-.78,1-1.02,1.63-.24.64-.36,1.35-.36,2.15s.11,1.47.34,2.11.56,1.18.99,1.64c.43.46.95.81,1.56,1.06.61.25,1.3.38,2.06.38s1.39-.11,1.98-.33c.6-.22,1.11-.54,1.54-.95s.76-.9.99-1.49c.23-.58.35-1.24.35-1.96v-.63h-4.69v.95h0Z" fill="#fff"></path><path d="M168.63,40.38c-.49,0-.94.12-1.34.38-.4.25-.68.61-.84,1.07h-.06l-.07-1.35h-1.01v7.3h1.12v-4.35c.04-.42.15-.77.33-1.06s.43-.52.75-.67c.32-.16.69-.24,1.12-.24.08,0,.16,0,.24,0,.07,0,.14.01.21.02v-1.07c-.07,0-.13-.02-.21-.02s-.15,0-.24,0h0Z" fill="#fff"></path><path d="M175.72,41.38c-.31-.33-.68-.59-1.11-.76s-.91-.26-1.45-.26c-.72,0-1.34.16-1.88.48s-.95.76-1.24,1.33-.43,1.22-.43,1.97c0,.57.09,1.08.26,1.54.17.46.41.86.73,1.19.31.33.68.59,1.12.76.43.18.91.26,1.45.26.72,0,1.34-.16,1.87-.48.53-.32.94-.76,1.22-1.33.28-.57.43-1.22.43-1.96,0-.57-.08-1.09-.25-1.56-.17-.46-.4-.86-.71-1.2h0ZM175.24,45.64c-.2.42-.48.74-.83.96-.35.22-.77.33-1.24.33-.36,0-.69-.06-.99-.19-.3-.12-.55-.31-.76-.55-.21-.24-.37-.54-.47-.88-.11-.35-.16-.73-.16-1.16,0-.6.1-1.11.3-1.53.2-.42.48-.74.84-.97.36-.23.77-.34,1.25-.34.37,0,.7.07.99.19.29.13.54.32.74.56s.36.54.48.89c.11.35.17.74.17,1.17,0,.58-.1,1.09-.3,1.51h0Z" fill="#fff"></path><path d="M183.63,44.37c0,.51-.09.96-.28,1.35-.19.39-.45.69-.78.9-.33.21-.72.32-1.16.32s-.81-.09-1.1-.26c-.28-.18-.49-.43-.62-.77-.13-.34-.2-.75-.2-1.23v-4.2h-1.13v4.48c0,.65.1,1.19.31,1.63.21.44.51.77.91.99.4.22.88.33,1.42.33.59,0,1.11-.15,1.56-.45.46-.3.78-.71.96-1.23h.08l.06,1.56h1.08v-7.3h-1.13v3.89h0Z" fill="#fff"></path><path d="M193.45,42.56c-.14-.47-.35-.86-.62-1.19-.27-.32-.59-.57-.96-.74-.37-.17-.78-.26-1.23-.26-.63,0-1.18.15-1.63.44-.46.3-.77.69-.94,1.18h-.07l-.06-1.51h-1.06v9.62h1.13v-3.82h.06c.12.32.3.61.54.85.24.25.53.44.88.57s.73.2,1.15.2c.61,0,1.14-.15,1.59-.44.46-.3.81-.73,1.06-1.29.25-.57.38-1.24.38-2.03,0-.58-.07-1.11-.22-1.58h0ZM192.24,45.67c-.19.43-.45.75-.78.97-.34.22-.74.33-1.22.33s-.87-.11-1.2-.33c-.33-.22-.59-.51-.77-.88-.18-.36-.27-.76-.27-1.18v-.89c0-.42.09-.81.27-1.17.18-.37.43-.66.77-.88.34-.22.74-.33,1.23-.33s.87.11,1.2.33c.33.22.59.54.77.97.18.42.27.93.27,1.52s-.09,1.1-.28,1.53Z" fill="#fff"></path></g></svg>